HIERARCHY
ROOT Hips
{
	OFFSET 0.000000 0.000000 0.000000
	CHANNELS 6 Xposition Yposition Zposition Xrotation Yrotation Zrotation
	JOINT LeftUpLeg_virtual
	{
		OFFSET 0.000000 0.000000 0.000000
		CHANNELS 3 Xrotation Yrotation Zrotation
		JOINT LeftUpLeg
		{
			OFFSET 11.394100 -6.187798 -0.413800
			CHANNELS 3 Xrotation Yrotation Zrotation
			JOINT LeftLeg
			{
				OFFSET 0.430247 -32.302673 3.732800
				CHANNELS 3 Xrotation Yrotation Zrotation
				JOINT LeftFoot
				{
					OFFSET -0.430247 -48.264931 -6.423300
					CHANNELS 3 Xrotation Yrotation Zrotation
					JOINT LeftToeBase
					{
						OFFSET 4.230900 -16.068199 23.438400
						CHANNELS 3 Xrotation Yrotation Zrotation
						JOINT LeftToe_End
						{
							OFFSET 4.510700 0.695400 19.974600
							CHANNELS 3 Xrotation Yrotation Zrotation
							End Site
							{
								OFFSET 0 0 0
							}
						}
					}
				}
			}
		}
	}
	JOINT RightUpLeg_virtual
	{
		OFFSET 0.000000 0.000000 0.000000
		CHANNELS 3 Xrotation Yrotation Zrotation
		JOINT RightUpLeg
		{
			OFFSET -11.333700 -6.187798 -0.413800
			CHANNELS 3 Xrotation Yrotation Zrotation
			JOINT RightLeg
			{
				OFFSET -0.430392 -32.302628 3.733000
				CHANNELS 3 Xrotation Yrotation Zrotation
				JOINT RightFoot
				{
					OFFSET 0.430392 -48.264973 -6.423500
					CHANNELS 3 Xrotation Yrotation Zrotation
					JOINT RightToeBase
					{
						OFFSET -4.230900 -16.068199 23.438400
						CHANNELS 3 Xrotation Yrotation Zrotation
						JOINT RightToe_End
						{
							OFFSET -4.510700 0.695400 19.974600
							CHANNELS 3 Xrotation Yrotation Zrotation
							End Site
							{
								OFFSET 0 0 0
							}
						}
					}
				}
			}
		}
	}
	JOINT Spine_virtual
	{
		OFFSET 0.000000 0.000000 0.000000
		CHANNELS 3 Xrotation Yrotation Zrotation
		JOINT Spine
		{
			OFFSET -0.002400 12.777504 0.315300
			CHANNELS 3 Xrotation Yrotation Zrotation
			JOINT Spine1
			{
				OFFSET -0.002067 5.816869 0.032633
				CHANNELS 3 Xrotation Yrotation Zrotation
				JOINT Spine1_split
				{
					OFFSET -0.002067 5.816869 0.032633
					CHANNELS 3 Xrotation Yrotation Zrotation
					JOINT Spine2
					{
						OFFSET -0.002067 5.816869 0.032633
						CHANNELS 3 Xrotation Yrotation Zrotation
						JOINT Neck_virtual
						{
							OFFSET 0.000000 0.000000 0.000000
							CHANNELS 3 Xrotation Yrotation Zrotation
							JOINT Neck
							{
								OFFSET -0.003700 21.199493 -0.826900
								CHANNELS 3 Xrotation Yrotation Zrotation
								JOINT Head
								{
									OFFSET 0.000000 20.442200 4.834800
									CHANNELS 3 Xrotation Yrotation Zrotation
									JOINT HeadTop_End
									{
										OFFSET 0.000000 34.668396 4.968400
										CHANNELS 3 Xrotation Yrotation Zrotation
										End Site
										{
											OFFSET 0 0 0
										}
									}
								}
							}
						}
						JOINT LeftShoulder_virtual
						{
							OFFSET 0.000000 0.000000 0.000000
							CHANNELS 3 Xrotation Yrotation Zrotation
							JOINT LeftShoulder
							{
								OFFSET 3.288150 8.794197 -1.372250
								CHANNELS 3 Xrotation Yrotation Zrotation
								JOINT LeftShoulder_split
								{
									OFFSET 3.288150 8.794197 -1.372250
									CHANNELS 3 Xrotation Yrotation Zrotation
									JOINT LeftArm
									{
										OFFSET 11.953299 -2.279007 -0.146200
										CHANNELS 3 Xrotation Yrotation Zrotation
										JOINT LeftForeArm
										{
											OFFSET 18.448900 0.000000 0.000000
											CHANNELS 3 Xrotation Yrotation Zrotation
											JOINT LeftHand
											{
												OFFSET 29.527798 0.000000 0.000000
												CHANNELS 3 Xrotation Yrotation Zrotation
												End Site
												{
													OFFSET 0 0 0
												}
											}
										}
									}
								}
							}
						}
						JOINT RightShoulder_virtual
						{
							OFFSET 0.000000 0.000000 0.000000
							CHANNELS 3 Xrotation Yrotation Zrotation
							JOINT RightShoulder
							{
								OFFSET -3.249400 8.794197 -1.372250
								CHANNELS 3 Xrotation Yrotation Zrotation
								JOINT RightShoulder_split
								{
									OFFSET -3.249400 8.794197 -1.372250
									CHANNELS 3 Xrotation Yrotation Zrotation
									JOINT RightArm
									{
										OFFSET -11.953299 -2.279007 -0.146200
										CHANNELS 3 Xrotation Yrotation Zrotation
										JOINT RightForeArm
										{
											OFFSET -18.448900 0.000000 0.000000
											CHANNELS 3 Xrotation Yrotation Zrotation
											JOINT RightHand
											{
												OFFSET -29.527802 0.000000 0.000000
												CHANNELS 3 Xrotation Yrotation Zrotation
												End Site
												{
													OFFSET 0 0 0
												}
											}
										}
									}
								}
							}
						}
					}
				}
			}
		}
	}
}
MOTION
Frames: 8
Frame Time: 0.03333333
-8.623590 77.597481 15.877279 0.000000 0.000000 0.000000 8.149065 35.281964 -2.904800 -81.090260 -6.256073 -29.137679 78.402013 -39.863115 5.221729 12.621922 9.383234 4.943682 4.132524 -0.448244 2.455905 0.000000 0.000000 0.000000 9.534713 37.814079 -3.937181 2.951458 -34.884317 -4.984525 61.722999 11.704791 -9.009452 -24.818331 -1.803373 1.281892 -44.057336 -7.498013 6.704107 0.000000 0.000000 0.000000 10.752146 42.965469 -5.597752 6.485594 11.961610 0.161449 3.125070 16.340123 0.062911 1.033030 1.816777 0.605120 0.000000 0.000000 0.000000 2.709886 15.397560 -0.403936 18.724067 -31.629879 3.888820 -22.976777 -36.370143 -1.504648 0.000000 0.000000 0.000000 2.648855 16.331378 -0.837833 2.127307 -4.642612 -6.148369 -3.781178 -8.771818 -2.441975 -33.235581 9.949172 -25.710864 50.461458 -3.127360 17.619354 0.000000 0.000000 0.000000 3.837670 16.355089 -1.045877 0.516802 8.045215 -16.332529 -4.980823 4.407090 2.953096 -18.596034 -20.139067 3.888837 -33.331275 29.513292 9.879428 0.000000 0.000000 0.000000 
-8.099517 77.818100 15.768484 0.000000 0.000000 0.000000 8.677043 33.480699 -3.008057 -81.170453 -5.893482 -27.624772 78.856952 -38.961714 5.598836 12.646730 8.758078 4.661490 4.405687 -0.345437 2.601762 0.000000 0.000000 0.000000 10.339041 36.289321 -3.993901 2.533121 -33.283751 -5.672049 61.141319 11.471239 -8.702018 -25.102911 -1.790331 0.926604 -43.066689 -7.227789 6.825398 0.000000 0.000000 0.000000 11.192657 41.762413 -6.071870 6.526987 11.668676 0.240936 3.325128 15.877874 -0.206319 1.018324 1.473794 0.710166 0.000000 0.000000 0.000000 2.795858 14.932672 -0.672542 17.651456 -31.253576 3.078287 -22.694140 -37.466675 -0.531108 0.000000 0.000000 0.000000 2.862843 15.839525 -1.228163 2.050107 -4.864952 -6.063227 -4.714830 -8.627864 -1.715310 -27.338701 13.541228 -25.018230 50.511937 -3.059848 19.055405 0.000000 0.000000 0.000000 3.924908 15.972694 -1.218839 0.310276 6.985142 -16.647070 -5.492799 3.490560 2.388478 -23.169940 -18.265201 4.844441 -32.525952 30.908184 12.335398 0.000000 0.000000 0.000000 
-7.480621 78.171577 15.664583 0.000000 0.000000 0.000000 8.994144 30.558874 -3.052992 -80.413675 -5.610911 -25.534703 78.521904 -37.558264 5.527576 11.899554 8.194426 4.679939 4.151774 -0.225404 2.724328 0.000000 0.000000 0.000000 10.752287 33.665350 -3.909436 2.350549 -31.041157 -6.569598 59.895848 11.700537 -8.431942 -24.503358 -1.747480 1.313349 -42.896921 -7.005893 6.957657 0.000000 0.000000 0.000000 11.103940 39.530546 -6.230692 6.775600 11.230204 0.396049 3.574764 15.394498 -0.407450 0.636964 1.585009 0.583748 0.000000 0.000000 0.000000 2.993928 14.484263 -0.852171 15.910738 -30.718964 2.106695 -22.431842 -38.196371 0.489566 0.000000 0.000000 0.000000 3.055327 15.412901 -1.491331 1.826593 -4.588017 -5.592066 -5.591036 -8.876352 -1.140779 -20.726938 17.494288 -24.868418 50.515396 -2.083245 20.159915 0.000000 0.000000 0.000000 3.997917 15.610290 -1.321941 -0.203510 5.415518 -17.620817 -4.929403 2.945048 1.775145 -30.398764 -14.177761 6.733812 -30.775391 31.219330 13.810471 0.000000 0.000000 0.000000 
-6.736426 78.637863 15.543341 0.000000 0.000000 0.000000 9.051960 26.716736 -2.915859 -78.828702 -5.370777 -23.005523 77.436771 -35.796427 5.047114 10.562498 7.519043 4.932991 3.024717 -0.140645 2.946807 0.000000 0.000000 0.000000 10.761093 30.057504 -3.638725 2.285251 -28.337811 -7.756891 58.322944 12.409692 -8.253670 -23.315696 -1.595485 2.683241 -43.578786 -6.915010 7.088150 0.000000 0.000000 0.000000 10.524265 36.079375 -5.939632 7.239206 10.690233 0.573295 3.842971 14.914201 -0.531247 0.436928 1.851183 0.523105 0.000000 0.000000 0.000000 3.183739 14.057454 -0.960839 13.834482 -29.827108 1.227402 -22.271264 -38.132888 1.347760 0.000000 0.000000 0.000000 3.187225 15.024523 -1.639111 1.489587 -3.765213 -4.838707 -6.421783 -9.254707 -0.958000 -13.401424 21.579385 -25.700405 50.330281 -0.407968 21.050416 0.000000 0.000000 0.000000 4.119649 15.307658 -1.383179 -0.892168 3.676304 -18.683573 -3.587004 2.846252 1.314770 -38.636205 -7.916402 9.989854 -27.720102 29.850071 13.703204 0.000000 0.000000 0.000000 
-5.868945 79.244225 15.259710 0.000000 0.000000 0.000000 8.919936 21.954342 -2.552391 -76.575047 -5.125561 -20.223452 75.948473 -33.775193 4.386975 8.817609 6.588635 5.509827 1.581011 -0.112833 3.265671 0.000000 0.000000 0.000000 10.388779 25.601352 -3.133395 2.338221 -25.446469 -9.200722 56.789010 13.167230 -8.090409 -22.370746 -1.416903 4.246601 -43.931620 -6.955675 7.348601 0.000000 0.000000 0.000000 9.629243 31.503927 -5.242008 7.905652 10.122585 0.724801 4.057361 14.413642 -0.572392 0.285677 2.306223 0.681683 0.000000 0.000000 0.000000 3.252065 13.616545 -1.000152 11.789410 -28.427929 0.661399 -22.250388 -36.917050 1.789135 0.000000 0.000000 0.000000 3.203446 14.627176 -1.689018 1.088432 -2.500412 -4.058786 -6.879789 -9.387138 -1.076338 -5.212342 25.479406 -28.042916 49.875971 1.322791 21.977650 0.000000 0.000000 0.000000 4.254697 14.998032 -1.412635 -1.593854 2.014726 -19.074659 -2.222967 2.797152 1.157039 -46.454524 -0.136800 14.929434 -23.738058 27.566937 12.318468 0.000000 0.000000 0.000000 
-4.911280 79.943642 14.812813 0.000000 0.000000 0.000000 8.692395 16.435971 -1.978855 -73.844044 -4.930005 -17.315044 74.222682 -31.547203 3.633326 6.793926 5.377009 6.283421 0.558974 -0.103744 3.641125 0.000000 0.000000 0.000000 9.614278 20.565882 -2.398653 2.200170 -22.598762 -10.967765 55.403633 13.662088 -7.865678 -22.199486 -1.357551 5.469368 -42.835255 -7.020664 7.778852 0.000000 0.000000 0.000000 8.581205 25.866041 -4.249605 8.691990 9.564932 0.839589 4.157854 13.846614 -0.557481 0.284651 2.943443 0.867394 0.000000 0.000000 0.000000 3.146830 13.106244 -1.009095 10.077332 -26.409872 0.446407 -22.364403 -34.443708 1.684043 0.000000 0.000000 0.000000 3.157931 14.118002 -1.693064 0.668343 -1.051569 -3.357226 -7.123904 -8.977933 -1.560244 3.698613 29.239131 -32.076453 49.320478 2.431182 23.209965 0.000000 0.000000 0.000000 4.385044 14.592131 -1.407378 -2.157950 0.563652 -18.324209 -1.339715 2.386766 1.675576 -52.912297 8.044312 21.393112 -19.668515 26.326484 10.284276 0.000000 0.000000 0.000000 
-3.896569 80.675903 14.254059 0.000000 0.000000 0.000000 8.413883 10.308825 -1.186427 -70.926474 -4.913625 -14.395602 72.069595 -29.137983 2.769347 4.584070 3.979719 6.806073 0.121090 -0.020036 3.919478 0.000000 0.000000 0.000000 8.648132 14.984781 -1.489971 1.388852 -19.837864 -13.222486 54.394073 13.781167 -7.583338 -22.312063 -1.490282 6.651549 -40.717818 -6.970331 8.163716 0.000000 0.000000 0.000000 7.434794 19.387092 -3.075528 9.523496 9.040239 0.910068 4.158970 13.180026 -0.543382 0.397131 2.961794 0.985188 0.000000 0.000000 0.000000 2.928477 12.499257 -1.014292 8.891224 -23.671592 0.565257 -22.473197 -30.641502 1.070319 0.000000 0.000000 0.000000 3.103582 13.426170 -1.703795 0.282898 0.259477 -2.796651 -7.431939 -7.932411 -2.315511 12.853584 32.737045 -37.744305 49.099300 2.034904 24.974650 0.000000 0.000000 0.000000 4.456412 14.043908 -1.389284 -2.435415 -0.464056 -16.100882 -1.013835 1.793626 2.423553 -58.019821 15.878955 28.945997 -15.844367 27.823122 7.797638 0.000000 0.000000 0.000000 
-2.884579 81.447830 13.624592 0.000000 0.000000 0.000000 8.152480 3.701032 -0.218723 -67.937433 -5.108377 -11.589937 69.513526 -26.534619 1.898128 2.337653 2.561618 6.726374 0.019872 0.161963 4.038433 0.000000 0.000000 0.000000 7.634622 8.845824 -0.435037 -0.430654 -17.190978 -16.010985 53.832781 13.631920 -7.327372 -21.538870 -1.799641 8.518123 -38.505099 -6.710916 8.140025 0.000000 0.000000 0.000000 6.296411 12.314856 -1.843100 10.318328 8.605985 0.940650 4.110904 12.464168 -0.589290 0.408003 2.404940 0.858668 0.000000 0.000000 0.000000 2.682757 11.855791 -1.042657 8.110564 -20.380854 0.803748 -22.386488 -25.756461 0.098508 0.000000 0.000000 0.000000 3.098526 12.615844 -1.756020 -0.056924 1.292350 -2.439733 -7.570830 -6.411852 -3.084920 21.107204 35.805593 -44.660401 49.648075 -0.486149 27.503544 0.000000 0.000000 0.000000 4.448471 13.362038 -1.383085 -2.399725 -0.968282 -12.645109 -1.023274 1.169449 3.041321 -61.859849 23.028666 36.931581 -12.007286 32.100250 4.530768 0.000000 0.000000 0.000000 
